<?xml version="1.0" standalone="no"?>
<!DOCTYPE svg PUBLIC "-//W3C//DTD SVG 20010904//EN"
 "http://www.w3.org/TR/2001/REC-SVG-20010904/DTD/svg10.dtd">
<svg version="1.0" xmlns="http://www.w3.org/2000/svg"
 width="510.000000pt" height="519.000000pt" viewBox="0 0 510.000000 519.000000"
 preserveAspectRatio="xMidYMid meet">

<g transform="translate(0.000000,519.000000) scale(0.100000,-0.100000)"
fill="#000000" stroke="none">
<path d="M2355 4914 c-732 -66 -1385 -458 -1787 -1074 -297 -456 -422 -1015
-352 -1575 39 -309 157 -651 318 -915 l46 -75 0 -134 c0 -151 15 -202 72 -242
l29 -21 -31 -19 c-50 -31 -70 -87 -70 -206 0 -138 22 -187 98 -219 l32 -14 0
-100 0 -100 -265 0 c-170 0 -265 -4 -265 -10 0 -7 792 -10 2355 -10 1563 0
2355 3 2355 10 0 6 -97 10 -270 10 l-270 0 0 99 0 99 35 6 c43 8 94 50 111 93
9 20 14 71 14 138 0 120 -18 174 -71 203 -16 9 -29 19 -29 22 0 3 13 12 29 21
15 9 38 36 49 61 19 39 22 62 22 179 l0 134 44 66 c244 363 372 879 336 1350
-75 990 -658 1773 -1551 2084 -249 86 -516 135 -769 139 -96 2 -193 2 -215 0z
m173 -286 l-3 -272 -43 -8 c-104 -18 -217 -91 -278 -182 -39 -58 -74 -160 -74
-217 l0 -39 433 2 432 3 -3 49 c-8 104 -59 204 -147 285 -57 53 -133 87 -225
102 l-70 12 0 269 0 269 93 -7 c207 -13 469 -65 660 -129 774 -259 1330 -882
1511 -1695 41 -184 57 -337 56 -537 -1 -428 -94 -782 -297 -1121 l-58 -97 -5
550 c-5 545 -5 550 -27 585 -12 20 -40 46 -62 58 l-39 22 -870 -2 c-864 -3
-871 -3 -899 -24 -15 -11 -37 -34 -48 -50 l-20 -30 -20 30 c-11 16 -33 39 -48
50 -28 21 -33 21 -899 24 -863 2 -870 2 -907 -18 -20 -12 -48 -37 -61 -57
l-25 -37 -3 -550 -3 -551 -40 70 c-212 363 -319 753 -320 1162 0 177 6 255 32
413 53 323 172 624 348 890 422 634 1127 1026 1884 1049 l47 1 -2 -272z m205
-330 c121 -57 222 -192 234 -313 l6 -55 -413 0 -413 0 6 44 c16 113 84 223
177 287 85 57 130 69 245 66 84 -2 109 -6 158 -29z m-273 -1811 c42 -27 68
-71 70 -117 1 -19 2 -264 1 -544 l-1 -509 -44 41 c-24 22 -61 45 -82 51 -26 7
-303 11 -844 11 l-805 0 -51 -24 c-28 -13 -63 -39 -77 -57 l-27 -34 0 539 c0
519 1 541 20 581 12 25 34 49 57 63 l38 22 856 0 856 0 33 -23z m1951 1 c25
-14 46 -37 59 -63 19 -40 20 -62 20 -581 l0 -539 -27 34 c-14 18 -49 44 -77
57 l-51 24 -805 0 c-541 0 -818 -4 -844 -11 -21 -6 -58 -29 -82 -51 l-44 -41
0 49 c0 27 0 271 0 543 0 551 -2 530 70 578 l33 23 855 0 854 0 39 -22z
m-2018 -1099 c43 -12 101 -59 123 -100 11 -22 14 -71 14 -214 l0 -185 -889 0
c-604 0 -899 3 -918 11 -40 15 -82 57 -104 104 -21 46 -26 194 -8 258 13 50
76 112 125 125 54 14 1606 16 1657 1z m1992 -15 c22 -11 53 -40 70 -63 27 -39
30 -50 33 -146 5 -118 -5 -160 -51 -212 -58 -66 -8 -63 -987 -63 l-890 0 0
185 c0 202 3 216 58 268 61 58 35 57 917 54 800 -2 810 -2 850 -23z m37 -531
c52 -31 68 -74 68 -188 0 -115 -15 -156 -69 -192 l-34 -23 -1842 0 -1842 0
-34 23 c-54 36 -69 77 -69 190 0 138 27 189 111 206 16 3 851 5 1855 4 1741
-2 1827 -3 1856 -20z m-3432 -513 l0 -90 -130 0 -130 0 0 90 0 90 130 0 130 0
0 -90z m3060 -10 l0 -100 -1520 0 -1520 0 0 100 0 100 1520 0 1520 0 0 -100z
m280 10 l0 -90 -130 0 -130 0 0 90 0 90 130 0 130 0 0 -90z"/>
</g>
</svg>
